<svg xmlns="http://www.w3.org/2000/svg" viewBox="0 0 32 32" fill="none">
  <!-- Gradient Definition -->
  <defs>
    <linearGradient id="brainGradient" x1="0%" y1="0%" x2="100%" y2="100%">
      <stop offset="0%" style="stop-color:#3b82f6;stop-opacity:1" />
      <stop offset="100%" style="stop-color:#9333ea;stop-opacity:1" />
    </linearGradient>
  </defs>

  <!-- Background Circle -->
  <circle cx="16" cy="16" r="15" fill="url(#brainGradient)"/>

  <!-- AI Brain Icon -->
  <path d="M10 12C10 11.4477 10.4477 11 11 11H13C13.5523 11 14 11.4477 14 12V14C14 14.5523 13.5523 15 13 15H11C10.4477 15 10 14.5523 10 14V12Z" fill="white"/>
  <path d="M18 12C18 11.4477 18.4477 11 19 11H21C21.5523 11 22 11.4477 22 12V14C22 14.5523 21.5523 15 21 15H19C18.4477 15 18 14.5523 18 14V12Z" fill="white"/>
  <path d="M10 18C10 17.4477 10.4477 17 11 17H13C13.5523 17 14 17.4477 14 18V20C14 20.5523 13.5523 21 13 21H11C10.4477 21 10 20.5523 10 20V18Z" fill="white"/>
  <path d="M18 18C18 17.4477 18.4477 17 19 17H21C21.5523 17 22 17.4477 22 18V20C22 20.5523 21.5523 21 21 21H19C18.4477 21 18 20.5523 18 20V18Z" fill="white"/>

  <!-- Connecting Lines (Neural Network) -->
  <line x1="14" y1="13" x2="18" y2="13" stroke="white" stroke-width="1.5" opacity="0.8"/>
  <line x1="14" y1="19" x2="18" y2="19" stroke="white" stroke-width="1.5" opacity="0.8"/>
  <line x1="12" y1="15" x2="12" y2="17" stroke="white" stroke-width="1.5" opacity="0.8"/>
  <line x1="20" y1="15" x2="20" y2="17" stroke="white" stroke-width="1.5" opacity="0.8"/>
  <line x1="14" y1="13" x2="18" y2="19" stroke="white" stroke-width="1" opacity="0.4"/>
  <line x1="18" y1="13" x2="14" y2="19" stroke="white" stroke-width="1" opacity="0.4"/>
</svg>
